_________________________  Visit us at _________________________
  
http://p2pdl.com  ____________________________  http://p2pdl.com


Identity Thief 2013 WEBRip 480p x264 AAC - VYTO


Genre: Comedy | Crime
Plot: Mild-mannered businessman Sandy Patterson travels from Denver to Miami to confront the deceptively
harmless-looking woman who has been living it up after stealing Sandy's identity. 
Director: Seth Gordon
Stars: Jason Bateman, Melissa McCarthy, Amanda Peet.
Rated: R for sexual content and language.


Info: 
http://www.imdb.com/title/tt2024432/

Trailer:


Format                         : MPEG-4
File size                      : 402 MiB
Duration                       : 2h 0mn
Overall bit rate mode          : Variable
Overall bit rate               : 466 Kbps
Source                         : UNRATED.720p.WEB-DL.H264-PHD

Video
Format                         : AVC
Bit rate                       : 423 Kbps
Width                          : 720 pixels
Height                         : 304 pixels
Display aspect ratio           : 2.35:1
Frame rate mode                : Constant
Frame rate                     : 23.976 fps
Stream size                    : 364 MiB (91%)
Writing library                : x264 core 130 r2273

Audio
Format                         : AAC
Bit rate mode                  : Variable
Bit rate                       : 40.0 Kbps
Channel(s)                     : 2 channels
Channel positions              : Front: L R
Sampling rate                  : 48.0 KHz
Stream size                    : 34.5 MiB (9%)
Language                       : English

Subtitle                       : Yes(English)
 
http://www.ultraimg.com/images/Em3W1.png 
http://www.ultraimg.com/images/qTug.png 
http://www.ultraimg.com/images/AaFoX.png 
http://www.ultraimg.com/images/Cav3.png 
http://www.ultraimg.com/images/K10YW.png 
http://www.ultraimg.com/images/pbTNY.png

----------------------------------------------------------------------------------------------------


Encoded using revolutionary 10bit encoding, which enables us to provide you more crispier 
and sharper images at small sizes, just make sure you follow our instructions without a fault.
Recommend to you to use latest version of VLC player. Install K-Lite Codec Pack or shark007 codecs
in case of any kind of problem in playback (For non-VLC Media Player users). Alternatively, install
Core AVC codecs, the fastest decoder that there is coupled with Community Center Codec Pack and play
on Windows Media Player Classic. Check sample to be sure.
Enjoy!

Encoder Notes:Looking For Early Access To Anything You Can Provide DVDScr, R5, DVDR, BluRay, Direct
Audio, Music Releases and Seedboxes. We require dedicated servers, so as to do more 
and fast releases of movies.
If You Got anything to offer please contact us at "contact@p2pdl.com".

Face book Fan Page:   
http://www.fb.me/p2pdl